<svg xmlns="http://www.w3.org/2000/svg" viewBox="0 0 512 512">
    <!-- Background -->
    <rect width="512" height="512" rx="100" fill="#2C3E50"/>
    
    <!-- Blocks forming a 'C' shape -->
    <!-- Each block has main color, highlight, and shadow -->
    
    <!-- Top block -->
    <g transform="translate(140,100)">
        <rect width="80" height="80" fill="#3498DB"/>
        <path d="M0,0 h80 v10 h-70 v70 h-10 z" fill="#5DADE2" opacity="0.5"/>
        <path d="M80,0 v80 h-10 v-70 h-70 v-10 z" fill="#2980B9" opacity="0.5"/>
    </g>
    
    <!-- Middle left block -->
    <g transform="translate(140,190)">
        <rect width="80" height="80" fill="#E74C3C"/>
        <path d="M0,0 h80 v10 h-70 v70 h-10 z" fill="#EC7063" opacity="0.5"/>
        <path d="M80,0 v80 h-10 v-70 h-70 v-10 z" fill="#C0392B" opacity="0.5"/>
    </g>
    
    <!-- Bottom block -->
    <g transform="translate(140,280)">
        <rect width="80" height="80" fill="#F1C40F"/>
        <path d="M0,0 h80 v10 h-70 v70 h-10 z" fill="#F4D03F" opacity="0.5"/>
        <path d="M80,0 v80 h-10 v-70 h-70 v-10 z" fill="#D4AC0D" opacity="0.5"/>
    </g>
    
    <!-- Falling block -->
    <g transform="translate(292,160) rotate(15)">
        <rect width="80" height="80" fill="#2ECC71"/>
        <path d="M0,0 h80 v10 h-70 v70 h-10 z" fill="#58D68D" opacity="0.5"/>
        <path d="M80,0 v80 h-10 v-70 h-70 v-10 z" fill="#27AE60" opacity="0.5"/>
    </g>
    
    <!-- Drop shadow for falling block -->
    <rect x="280" y="280" width="80" height="10" fill="#000000" opacity="0.2" rx="5"/>
    
    <!-- Particle effects -->
    <circle cx="400" cy="200" r="8" fill="#FFFFFF" opacity="0.6"/>
    <circle cx="380" cy="220" r="6" fill="#FFFFFF" opacity="0.4"/>
    <circle cx="420" cy="240" r="4" fill="#FFFFFF" opacity="0.3"/>
</svg>
